<svg width="72" height="72" viewBox="0 0 72 72" fill="none" xmlns="http://www.w3.org/2000/svg">
<rect width="72" height="72" rx="12" fill="#FFEFDA"/>
<path d="M45.9998 27.9333C45.8998 27.9166 45.7831 27.9166 45.6831 27.9333C43.3831 27.8499 41.5498 25.9666 41.5498 23.6333C41.5498 21.2499 43.4665 19.3333 45.8498 19.3333C48.2331 19.3333 50.1498 21.2666 50.1498 23.6333C50.1331 25.9666 48.2998 27.8499 45.9998 27.9333Z" stroke="#F89D1B" stroke-width="2" stroke-linecap="round" stroke-linejoin="round"/>
<path d="M44.2829 40.0666C46.5662 40.4499 49.0829 40.0499 50.8496 38.8666C53.1996 37.2999 53.1996 34.7333 50.8496 33.1666C49.0663 31.9833 46.5162 31.5833 44.2329 31.9833" stroke="#F89D1B" stroke-width="2" stroke-linecap="round" stroke-linejoin="round"/>
<path d="M25.9498 27.9333C26.0498 27.9166 26.1665 27.9166 26.2665 27.9333C28.5665 27.8499 30.3998 25.9666 30.3998 23.6333C30.3998 21.2499 28.4831 19.3333 26.0998 19.3333C23.7165 19.3333 21.7998 21.2666 21.7998 23.6333C21.8165 25.9666 23.6498 27.8499 25.9498 27.9333Z" stroke="#F89D1B" stroke-width="2" stroke-linecap="round" stroke-linejoin="round"/>
<path d="M27.6666 40.0666C25.3832 40.4499 22.8666 40.0499 21.0999 38.8666C18.7499 37.2999 18.7499 34.7333 21.0999 33.1666C22.8832 31.9833 25.4332 31.5833 27.7166 31.9833" stroke="#F89D1B" stroke-width="2" stroke-linecap="round" stroke-linejoin="round"/>
<path d="M36.0003 40.3835C35.9003 40.3668 35.7836 40.3668 35.6836 40.3835C33.3836 40.3001 31.5503 38.4168 31.5503 36.0835C31.5503 33.7001 33.467 31.7834 35.8503 31.7834C38.2336 31.7834 40.1503 33.7168 40.1503 36.0835C40.1336 38.4168 38.3003 40.3168 36.0003 40.3835Z" stroke="#F89D1B" stroke-width="2" stroke-linecap="round" stroke-linejoin="round"/>
<path d="M31.1502 45.6333C28.8002 47.2 28.8002 49.7667 31.1502 51.3333C33.8169 53.1167 38.1835 53.1167 40.8502 51.3333C43.2002 49.7667 43.2002 47.2 40.8502 45.6333C38.2002 43.8667 33.8169 43.8667 31.1502 45.6333Z" stroke="#F89D1B" stroke-width="2" stroke-linecap="round" stroke-linejoin="round"/>
</svg>
