<svg width="72" height="72" viewBox="0 0 72 72" fill="none" xmlns="http://www.w3.org/2000/svg">
<rect width="72" height="72" rx="12" fill="#F89D1B"/>
<path d="M51.75 32.1749C50.4 24.5249 43.875 18.8999 36 18.8999C28.125 18.8999 21.6 24.7499 20.25 32.1749C18.9 33.2999 18 35.3249 18 37.3499C18 40.0499 19.575 43.1999 22.05 43.1999C24.3 43.1999 24.3 40.7249 24.3 37.3499C24.3 34.1999 24.3 31.7249 22.725 31.4999C24.075 25.4249 29.475 20.9249 36 20.9249C42.525 20.9249 47.925 25.4249 49.275 31.2749C47.7 31.7249 47.7 33.9749 47.7 37.1249C47.7 39.3749 47.7 40.9499 48.15 42.0749C46.125 45.2249 43.2 47.4749 39.6 48.3749C38.925 47.4749 37.575 46.7999 36 46.7999C33.75 46.7999 31.95 47.9249 31.95 49.2749C31.95 50.6249 33.75 51.7499 36 51.7499C38.25 51.7499 40.05 50.6249 40.05 49.2749C43.65 48.3749 46.8 45.8999 48.825 42.7499C49.05 42.9749 49.5 42.9749 49.95 42.9749C52.425 42.9749 54 39.8249 54 37.1249C54 35.3249 53.1 33.2999 51.75 32.1749Z" fill="white"/>
</svg>
