<svg width="241" height="82" viewBox="0 0 241 82" fill="none" xmlns="http://www.w3.org/2000/svg">
<path d="M99.304 39.18C97.84 39.18 96.304 39.12 94.696 39C93.088 38.88 91.564 38.748 90.124 38.604V34.392H99.52C100.384 34.392 101.056 34.248 101.536 33.96C102.04 33.672 102.388 33.3 102.58 32.844C102.796 32.364 102.904 31.872 102.904 31.368V29.532C102.904 28.692 102.688 28.032 102.256 27.552C101.848 27.048 101.152 26.796 100.168 26.796H98.08C97.288 26.796 96.688 26.964 96.28 27.3C95.896 27.612 95.644 28.104 95.524 28.776H90.484L91.24 12.36H107.224V17.148H95.812L95.524 23.484C95.884 23.1 96.376 22.812 97 22.62C97.648 22.404 98.368 22.296 99.16 22.296H102.076C103.468 22.296 104.62 22.572 105.532 23.124C106.444 23.676 107.128 24.432 107.584 25.392C108.04 26.328 108.268 27.384 108.268 28.56V32.484C108.268 34.044 107.92 35.316 107.224 36.3C106.528 37.284 105.52 38.016 104.2 38.496C102.88 38.952 101.248 39.18 99.304 39.18ZM118.831 39.144C117.343 39.144 116.071 38.892 115.015 38.388C113.983 37.86 113.191 37.08 112.639 36.048C112.111 35.016 111.847 33.756 111.847 32.268V19.308C111.847 17.748 112.123 16.44 112.675 15.384C113.227 14.304 114.031 13.5 115.087 12.972C116.167 12.42 117.427 12.144 118.867 12.144H124.411C125.923 12.144 127.171 12.432 128.155 13.008C129.163 13.56 129.919 14.376 130.423 15.456C130.927 16.512 131.179 17.796 131.179 19.308V32.268C131.179 34.5 130.579 36.204 129.379 37.38C128.203 38.556 126.547 39.144 124.411 39.144H118.831ZM120.091 34.356H122.971C123.955 34.356 124.675 34.116 125.131 33.636C125.611 33.156 125.851 32.436 125.851 31.476V19.812C125.851 18.756 125.611 18.012 125.131 17.58C124.651 17.148 124.003 16.932 123.187 16.932H119.911C119.023 16.932 118.339 17.172 117.859 17.652C117.403 18.132 117.175 18.852 117.175 19.812V31.44C117.175 32.448 117.427 33.192 117.931 33.672C118.435 34.128 119.155 34.356 120.091 34.356ZM142.14 39.144C140.652 39.144 139.38 38.892 138.324 38.388C137.292 37.86 136.5 37.08 135.948 36.048C135.42 35.016 135.156 33.756 135.156 32.268V19.308C135.156 17.748 135.432 16.44 135.984 15.384C136.536 14.304 137.34 13.5 138.396 12.972C139.476 12.42 140.736 12.144 142.176 12.144H147.72C149.232 12.144 150.48 12.432 151.464 13.008C152.472 13.56 153.228 14.376 153.732 15.456C154.236 16.512 154.488 17.796 154.488 19.308V32.268C154.488 34.5 153.888 36.204 152.688 37.38C151.512 38.556 149.856 39.144 147.72 39.144H142.14ZM143.4 34.356H146.28C147.264 34.356 147.984 34.116 148.44 33.636C148.92 33.156 149.16 32.436 149.16 31.476V19.812C149.16 18.756 148.92 18.012 148.44 17.58C147.96 17.148 147.312 16.932 146.496 16.932H143.22C142.332 16.932 141.648 17.172 141.168 17.652C140.712 18.132 140.484 18.852 140.484 19.812V31.44C140.484 32.448 140.736 33.192 141.24 33.672C141.744 34.128 142.464 34.356 143.4 34.356ZM165.448 39.144C163.96 39.144 162.688 38.892 161.632 38.388C160.6 37.86 159.808 37.08 159.256 36.048C158.728 35.016 158.464 33.756 158.464 32.268V19.308C158.464 17.748 158.74 16.44 159.292 15.384C159.844 14.304 160.648 13.5 161.704 12.972C162.784 12.42 164.044 12.144 165.484 12.144H171.028C172.54 12.144 173.788 12.432 174.772 13.008C175.78 13.56 176.536 14.376 177.04 15.456C177.544 16.512 177.796 17.796 177.796 19.308V32.268C177.796 34.5 177.196 36.204 175.996 37.38C174.82 38.556 173.164 39.144 171.028 39.144H165.448ZM166.708 34.356H169.588C170.572 34.356 171.292 34.116 171.748 33.636C172.228 33.156 172.468 32.436 172.468 31.476V19.812C172.468 18.756 172.228 18.012 171.748 17.58C171.268 17.148 170.62 16.932 169.804 16.932H166.528C165.64 16.932 164.956 17.172 164.476 17.652C164.02 18.132 163.792 18.852 163.792 19.812V31.44C163.792 32.448 164.044 33.192 164.548 33.672C165.052 34.128 165.772 34.356 166.708 34.356ZM188.757 39.144C187.269 39.144 185.997 38.892 184.941 38.388C183.909 37.86 183.117 37.08 182.565 36.048C182.037 35.016 181.773 33.756 181.773 32.268V19.308C181.773 17.748 182.049 16.44 182.601 15.384C183.153 14.304 183.957 13.5 185.013 12.972C186.093 12.42 187.353 12.144 188.793 12.144H194.337C195.849 12.144 197.097 12.432 198.081 13.008C199.089 13.56 199.845 14.376 200.349 15.456C200.853 16.512 201.105 17.796 201.105 19.308V32.268C201.105 34.5 200.505 36.204 199.305 37.38C198.129 38.556 196.473 39.144 194.337 39.144H188.757ZM190.017 34.356H192.897C193.881 34.356 194.601 34.116 195.057 33.636C195.537 33.156 195.777 32.436 195.777 31.476V19.812C195.777 18.756 195.537 18.012 195.057 17.58C194.577 17.148 193.929 16.932 193.113 16.932H189.837C188.949 16.932 188.265 17.172 187.785 17.652C187.329 18.132 187.101 18.852 187.101 19.812V31.44C187.101 32.448 187.353 33.192 187.857 33.672C188.361 34.128 189.081 34.356 190.017 34.356ZM211.886 34.248V18.12H216.206V34.248H211.886ZM205.982 28.344V24.024H222.11V28.344H205.982Z" fill="#0D0D0D"/>
<path d="M93.148 76.108C92.86 76.108 92.53 76.096 92.158 76.072C91.798 76.06 91.426 76.036 91.042 76C90.67 75.964 90.31 75.928 89.962 75.892C89.626 75.856 89.338 75.808 89.098 75.748V74.344C89.41 74.368 89.782 74.392 90.214 74.416C90.658 74.44 91.126 74.458 91.618 74.47C92.122 74.482 92.608 74.488 93.076 74.488C93.592 74.488 94.048 74.44 94.444 74.344C94.852 74.248 95.17 74.068 95.398 73.804C95.638 73.54 95.758 73.168 95.758 72.688V71.914C95.758 71.374 95.608 70.96 95.308 70.672C95.02 70.384 94.576 70.24 93.976 70.24H92.626C91.474 70.24 90.58 69.988 89.944 69.484C89.32 68.98 89.008 68.116 89.008 66.892V66.172C89.008 64.9 89.35 63.994 90.034 63.454C90.73 62.902 91.714 62.626 92.986 62.626C93.406 62.626 93.856 62.65 94.336 62.698C94.816 62.734 95.284 62.782 95.74 62.842C96.196 62.902 96.574 62.962 96.874 63.022V64.426C96.334 64.39 95.728 64.354 95.056 64.318C94.396 64.27 93.772 64.246 93.184 64.246C92.68 64.246 92.242 64.306 91.87 64.426C91.51 64.534 91.228 64.732 91.024 65.02C90.832 65.308 90.736 65.716 90.736 66.244V66.784C90.736 67.432 90.91 67.882 91.258 68.134C91.606 68.386 92.092 68.512 92.716 68.512H94.174C94.93 68.512 95.548 68.65 96.028 68.926C96.52 69.202 96.886 69.58 97.126 70.06C97.366 70.54 97.486 71.086 97.486 71.698V72.634C97.486 73.57 97.294 74.29 96.91 74.794C96.526 75.298 96.01 75.646 95.362 75.838C94.714 76.018 93.976 76.108 93.148 76.108ZM103.535 76.108C102.515 76.108 101.699 75.958 101.087 75.658C100.487 75.358 100.055 74.854 99.7906 74.146C99.5386 73.426 99.4126 72.436 99.4126 71.176C99.4126 69.892 99.5386 68.896 99.7906 68.188C100.055 67.468 100.487 66.964 101.087 66.676C101.687 66.388 102.497 66.244 103.517 66.244C104.405 66.244 105.119 66.34 105.659 66.532C106.211 66.712 106.613 67.042 106.865 67.522C107.129 67.99 107.261 68.644 107.261 69.484C107.261 70.072 107.141 70.54 106.901 70.888C106.673 71.236 106.343 71.488 105.911 71.644C105.491 71.8 104.987 71.878 104.399 71.878H101.213C101.225 72.574 101.303 73.132 101.447 73.552C101.603 73.96 101.873 74.26 102.257 74.452C102.653 74.632 103.229 74.722 103.985 74.722H106.991V75.802C106.475 75.874 105.947 75.94 105.407 76C104.867 76.072 104.243 76.108 103.535 76.108ZM101.195 70.744H104.237C104.717 70.744 105.071 70.654 105.299 70.474C105.527 70.294 105.641 69.964 105.641 69.484C105.641 69.004 105.569 68.626 105.425 68.35C105.293 68.074 105.071 67.876 104.759 67.756C104.447 67.636 104.033 67.576 103.517 67.576C102.929 67.576 102.461 67.666 102.113 67.846C101.777 68.026 101.537 68.344 101.393 68.8C101.261 69.256 101.195 69.904 101.195 70.744ZM109.457 76V66.37H110.843L111.257 67.99C111.665 67.498 112.121 67.084 112.625 66.748C113.129 66.412 113.717 66.244 114.389 66.244C114.545 66.244 114.695 66.256 114.839 66.28C114.983 66.292 115.121 66.316 115.253 66.352V68.206C115.085 68.182 114.911 68.164 114.731 68.152C114.551 68.128 114.365 68.116 114.173 68.116C113.765 68.116 113.399 68.164 113.075 68.26C112.751 68.356 112.439 68.506 112.139 68.71C111.851 68.902 111.557 69.142 111.257 69.43V76H109.457ZM119.484 76L115.992 66.37H117.846L120.564 74.326L123.336 66.37H125.19L121.572 76H119.484ZM130.201 76.108C129.181 76.108 128.365 75.958 127.753 75.658C127.153 75.358 126.721 74.854 126.457 74.146C126.205 73.426 126.079 72.436 126.079 71.176C126.079 69.892 126.205 68.896 126.457 68.188C126.721 67.468 127.153 66.964 127.753 66.676C128.353 66.388 129.163 66.244 130.183 66.244C131.071 66.244 131.785 66.34 132.325 66.532C132.877 66.712 133.279 67.042 133.531 67.522C133.795 67.99 133.927 68.644 133.927 69.484C133.927 70.072 133.807 70.54 133.567 70.888C133.339 71.236 133.009 71.488 132.577 71.644C132.157 71.8 131.653 71.878 131.065 71.878H127.879C127.891 72.574 127.969 73.132 128.113 73.552C128.269 73.96 128.539 74.26 128.923 74.452C129.319 74.632 129.895 74.722 130.651 74.722H133.657V75.802C133.141 75.874 132.613 75.94 132.073 76C131.533 76.072 130.909 76.108 130.201 76.108ZM127.861 70.744H130.903C131.383 70.744 131.737 70.654 131.965 70.474C132.193 70.294 132.307 69.964 132.307 69.484C132.307 69.004 132.235 68.626 132.091 68.35C131.959 68.074 131.737 67.876 131.425 67.756C131.113 67.636 130.699 67.576 130.183 67.576C129.595 67.576 129.127 67.666 128.779 67.846C128.443 68.026 128.203 68.344 128.059 68.8C127.927 69.256 127.861 69.904 127.861 70.744ZM139.255 76.108C138.475 76.108 137.827 75.94 137.311 75.604C136.807 75.268 136.429 74.746 136.177 74.038C135.925 73.318 135.799 72.394 135.799 71.266C135.799 70.078 135.913 69.118 136.141 68.386C136.381 67.642 136.765 67.102 137.293 66.766C137.821 66.418 138.535 66.244 139.435 66.244C139.939 66.244 140.437 66.298 140.929 66.406C141.433 66.514 141.871 66.634 142.243 66.766V62.266H144.043V76H142.567L142.243 75.046C142.051 75.214 141.787 75.382 141.451 75.55C141.115 75.706 140.755 75.838 140.371 75.946C139.987 76.054 139.615 76.108 139.255 76.108ZM139.831 74.632C140.323 74.632 140.767 74.554 141.163 74.398C141.571 74.242 141.931 74.08 142.243 73.912V68.062C141.871 67.954 141.505 67.858 141.145 67.774C140.797 67.678 140.407 67.63 139.975 67.63C139.411 67.63 138.955 67.732 138.607 67.936C138.259 68.14 138.007 68.5 137.851 69.016C137.695 69.532 137.617 70.252 137.617 71.176C137.617 72.028 137.689 72.712 137.833 73.228C137.977 73.732 138.211 74.092 138.535 74.308C138.871 74.524 139.303 74.632 139.831 74.632ZM151.347 76V65.506C151.347 64.978 151.425 64.534 151.581 64.174C151.749 63.814 151.965 63.532 152.229 63.328C152.493 63.112 152.787 62.962 153.111 62.878C153.447 62.782 153.777 62.734 154.101 62.734C154.593 62.746 155.151 62.758 155.775 62.77C156.399 62.77 157.047 62.782 157.719 62.806C158.403 62.83 159.063 62.872 159.699 62.932V64.408H154.551C154.107 64.408 153.765 64.528 153.525 64.768C153.285 65.008 153.165 65.356 153.165 65.812V68.89L158.889 68.998V70.402L153.165 70.51V76H151.347ZM162.975 76.108C162.267 76.108 161.679 75.898 161.211 75.478C160.755 75.046 160.527 74.452 160.527 73.696V72.94C160.527 72.196 160.779 71.59 161.283 71.122C161.799 70.642 162.573 70.402 163.605 70.402H166.611V69.394C166.611 69.022 166.545 68.71 166.413 68.458C166.293 68.194 166.065 67.996 165.729 67.864C165.393 67.732 164.895 67.666 164.235 67.666H161.283V66.604C161.715 66.508 162.219 66.424 162.795 66.352C163.383 66.28 164.067 66.238 164.847 66.226C165.639 66.226 166.299 66.328 166.827 66.532C167.367 66.724 167.769 67.048 168.033 67.504C168.297 67.948 168.429 68.542 168.429 69.286V76H167.007L166.701 74.938C166.629 74.986 166.479 75.076 166.251 75.208C166.023 75.328 165.729 75.46 165.369 75.604C165.021 75.748 164.637 75.868 164.217 75.964C163.809 76.06 163.395 76.108 162.975 76.108ZM163.803 74.794C163.983 74.806 164.193 74.788 164.433 74.74C164.685 74.692 164.931 74.638 165.171 74.578C165.423 74.506 165.651 74.434 165.855 74.362C166.071 74.29 166.245 74.23 166.377 74.182C166.521 74.122 166.599 74.086 166.611 74.074V71.302L164.091 71.41C163.467 71.446 163.017 71.602 162.741 71.878C162.477 72.154 162.345 72.514 162.345 72.958V73.39C162.345 73.738 162.417 74.02 162.561 74.236C162.705 74.44 162.885 74.584 163.101 74.668C163.329 74.752 163.563 74.794 163.803 74.794ZM170.875 76V66.37H172.315L172.675 67.414C173.143 67.09 173.659 66.808 174.223 66.568C174.787 66.328 175.435 66.208 176.167 66.208C176.767 66.208 177.277 66.34 177.697 66.604C178.117 66.868 178.435 67.204 178.651 67.612C178.939 67.396 179.287 67.18 179.695 66.964C180.103 66.748 180.541 66.568 181.009 66.424C181.477 66.28 181.927 66.208 182.359 66.208C183.079 66.208 183.661 66.358 184.105 66.658C184.561 66.946 184.885 67.348 185.077 67.864C185.281 68.368 185.383 68.944 185.383 69.592V76H183.583V69.736C183.583 69.352 183.505 69.022 183.349 68.746C183.205 68.458 182.995 68.236 182.719 68.08C182.455 67.924 182.131 67.846 181.747 67.846C181.267 67.846 180.775 67.942 180.271 68.134C179.767 68.314 179.305 68.536 178.885 68.8C178.933 68.956 178.969 69.118 178.993 69.286C179.017 69.442 179.029 69.598 179.029 69.754V76H177.229V69.736C177.229 69.352 177.151 69.022 176.995 68.746C176.851 68.458 176.647 68.236 176.383 68.08C176.119 67.924 175.795 67.846 175.411 67.846C175.051 67.846 174.715 67.882 174.403 67.954C174.103 68.026 173.815 68.128 173.539 68.26C173.263 68.38 172.975 68.53 172.675 68.71V76H170.875ZM188.108 64.75C187.892 64.75 187.784 64.648 187.784 64.444V62.932C187.784 62.716 187.892 62.608 188.108 62.608H189.44C189.536 62.608 189.608 62.638 189.656 62.698C189.704 62.758 189.728 62.836 189.728 62.932V64.444C189.728 64.648 189.632 64.75 189.44 64.75H188.108ZM187.856 76V66.37H189.656V76H187.856ZM194.862 76.018C194.274 76.018 193.776 75.916 193.368 75.712C192.972 75.508 192.672 75.184 192.468 74.74C192.276 74.284 192.18 73.672 192.18 72.904V62.266H193.98V72.67C193.98 73.174 194.028 73.564 194.124 73.84C194.232 74.104 194.376 74.29 194.556 74.398C194.748 74.506 194.97 74.578 195.222 74.614L196.122 74.722V76.018H194.862ZM197.828 64.75C197.612 64.75 197.504 64.648 197.504 64.444V62.932C197.504 62.716 197.612 62.608 197.828 62.608H199.16C199.256 62.608 199.328 62.638 199.376 62.698C199.424 62.758 199.448 62.836 199.448 62.932V64.444C199.448 64.648 199.352 64.75 199.16 64.75H197.828ZM197.576 76V66.37H199.376V76H197.576ZM205.699 76.108C204.679 76.108 203.863 75.958 203.251 75.658C202.651 75.358 202.219 74.854 201.955 74.146C201.703 73.426 201.577 72.436 201.577 71.176C201.577 69.892 201.703 68.896 201.955 68.188C202.219 67.468 202.651 66.964 203.251 66.676C203.851 66.388 204.661 66.244 205.681 66.244C206.569 66.244 207.283 66.34 207.823 66.532C208.375 66.712 208.777 67.042 209.029 67.522C209.293 67.99 209.425 68.644 209.425 69.484C209.425 70.072 209.305 70.54 209.065 70.888C208.837 71.236 208.507 71.488 208.075 71.644C207.655 71.8 207.151 71.878 206.563 71.878H203.377C203.389 72.574 203.467 73.132 203.611 73.552C203.767 73.96 204.037 74.26 204.421 74.452C204.817 74.632 205.393 74.722 206.149 74.722H209.155V75.802C208.639 75.874 208.111 75.94 207.571 76C207.031 76.072 206.407 76.108 205.699 76.108ZM203.359 70.744H206.401C206.881 70.744 207.235 70.654 207.463 70.474C207.691 70.294 207.805 69.964 207.805 69.484C207.805 69.004 207.733 68.626 207.589 68.35C207.457 68.074 207.235 67.876 206.923 67.756C206.611 67.636 206.197 67.576 205.681 67.576C205.093 67.576 204.625 67.666 204.277 67.846C203.941 68.026 203.701 68.344 203.557 68.8C203.425 69.256 203.359 69.904 203.359 70.744ZM214.987 76.108C214.735 76.108 214.435 76.102 214.087 76.09C213.739 76.078 213.379 76.054 213.007 76.018C212.647 75.994 212.311 75.964 211.999 75.928C211.699 75.892 211.459 75.85 211.279 75.802V74.722H215.329C215.677 74.722 215.977 74.698 216.229 74.65C216.481 74.59 216.673 74.47 216.805 74.29C216.949 74.11 217.021 73.846 217.021 73.498V73.102C217.021 72.742 216.901 72.46 216.661 72.256C216.421 72.052 216.025 71.95 215.473 71.95H214.069C213.505 71.95 213.001 71.878 212.557 71.734C212.125 71.578 211.783 71.32 211.531 70.96C211.291 70.6 211.171 70.114 211.171 69.502V68.98C211.171 68.368 211.285 67.864 211.513 67.468C211.753 67.072 212.131 66.778 212.647 66.586C213.163 66.382 213.847 66.28 214.699 66.28C215.059 66.28 215.455 66.298 215.887 66.334C216.331 66.358 216.763 66.394 217.183 66.442C217.603 66.49 217.939 66.544 218.191 66.604V67.684H214.375C213.847 67.684 213.439 67.774 213.151 67.954C212.875 68.134 212.737 68.476 212.737 68.98V69.34C212.737 69.652 212.803 69.892 212.935 70.06C213.067 70.228 213.253 70.336 213.493 70.384C213.745 70.432 214.039 70.456 214.375 70.456H215.815C216.727 70.456 217.417 70.672 217.885 71.104C218.353 71.524 218.587 72.118 218.587 72.886V73.624C218.587 74.272 218.437 74.776 218.137 75.136C217.837 75.496 217.417 75.748 216.877 75.892C216.349 76.036 215.719 76.108 214.987 76.108Z" fill="#7E7E7E"/>
<rect y="5" width="72" height="72" rx="12" fill="#FFEFDA"/>
<path d="M45.9998 32.9333C45.8998 32.9166 45.7831 32.9166 45.6831 32.9333C43.3831 32.8499 41.5498 30.9666 41.5498 28.6333C41.5498 26.2499 43.4665 24.3333 45.8498 24.3333C48.2331 24.3333 50.1498 26.2666 50.1498 28.6333C50.1331 30.9666 48.2998 32.8499 45.9998 32.9333Z" stroke="#F89D1B" stroke-width="2" stroke-linecap="round" stroke-linejoin="round"/>
<path d="M44.2829 45.0666C46.5662 45.4499 49.0829 45.0499 50.8496 43.8666C53.1996 42.2999 53.1996 39.7333 50.8496 38.1666C49.0663 36.9833 46.5162 36.5833 44.2329 36.9833" stroke="#F89D1B" stroke-width="2" stroke-linecap="round" stroke-linejoin="round"/>
<path d="M25.9498 32.9333C26.0498 32.9166 26.1665 32.9166 26.2665 32.9333C28.5665 32.8499 30.3998 30.9666 30.3998 28.6333C30.3998 26.2499 28.4831 24.3333 26.0998 24.3333C23.7165 24.3333 21.7998 26.2666 21.7998 28.6333C21.8165 30.9666 23.6498 32.8499 25.9498 32.9333Z" stroke="#F89D1B" stroke-width="2" stroke-linecap="round" stroke-linejoin="round"/>
<path d="M27.6666 45.0666C25.3832 45.4499 22.8666 45.0499 21.0999 43.8666C18.7499 42.2999 18.7499 39.7333 21.0999 38.1666C22.8832 36.9833 25.4332 36.5833 27.7166 36.9833" stroke="#F89D1B" stroke-width="2" stroke-linecap="round" stroke-linejoin="round"/>
<path d="M36.0003 45.3835C35.9003 45.3668 35.7836 45.3668 35.6836 45.3835C33.3836 45.3001 31.5503 43.4168 31.5503 41.0835C31.5503 38.7001 33.467 36.7834 35.8503 36.7834C38.2336 36.7834 40.1503 38.7168 40.1503 41.0835C40.1336 43.4168 38.3003 45.3168 36.0003 45.3835Z" stroke="#F89D1B" stroke-width="2" stroke-linecap="round" stroke-linejoin="round"/>
<path d="M31.1502 50.6333C28.8002 52.2 28.8002 54.7667 31.1502 56.3333C33.8169 58.1167 38.1835 58.1167 40.8502 56.3333C43.2002 54.7667 43.2002 52.2 40.8502 50.6333C38.2002 48.8667 33.8169 48.8667 31.1502 50.6333Z" stroke="#F89D1B" stroke-width="2" stroke-linecap="round" stroke-linejoin="round"/>
</svg>
