<svg width="72" height="72" viewBox="0 0 72 72" fill="none" xmlns="http://www.w3.org/2000/svg">
<rect width="72" height="72" rx="12" fill="#FFEFDA"/>
<path d="M36.251 43.5V47" stroke="#F89D1B" stroke-width="2" stroke-linecap="round" stroke-linejoin="round"/>
<path d="M27.917 52.6667H44.5837V51.0001C44.5837 49.1667 43.0837 47.6667 41.2503 47.6667H31.2503C29.417 47.6667 27.917 49.1667 27.917 51.0001V52.6667V52.6667Z" stroke="#F89D1B" stroke-width="2" stroke-miterlimit="10"/>
<path d="M26.251 52.6667H46.251" stroke="#F89D1B" stroke-width="2" stroke-linecap="round" stroke-linejoin="round"/>
<path d="M35.9997 42.6666C29.5497 42.6666 24.333 37.4499 24.333 30.9999V25.9999C24.333 22.3166 27.3163 19.3333 30.9997 19.3333H40.9997C44.683 19.3333 47.6663 22.3166 47.6663 25.9999V30.9999C47.6663 37.4499 42.4497 42.6666 35.9997 42.6666Z" stroke="#F89D1B" stroke-width="2" stroke-linecap="round" stroke-linejoin="round"/>
<path d="M25.1161 35.4167C23.8661 35.0167 22.7661 34.2833 21.8994 33.4167C20.3994 31.75 19.3994 29.75 19.3994 27.4167C19.3994 25.0833 21.2327 23.25 23.5661 23.25H24.6494C24.3161 24.0167 24.1494 24.8667 24.1494 25.75V30.75C24.1494 32.4167 24.4994 33.9833 25.1161 35.4167Z" stroke="#F89D1B" stroke-width="2" stroke-linecap="round" stroke-linejoin="round"/>
<path d="M46.8828 35.4167C48.1328 35.0167 49.2328 34.2833 50.0995 33.4167C51.5995 31.75 52.5995 29.75 52.5995 27.4167C52.5995 25.0833 50.7661 23.25 48.4328 23.25H47.3495C47.6828 24.0167 47.8495 24.8667 47.8495 25.75V30.75C47.8495 32.4167 47.4995 33.9833 46.8828 35.4167Z" stroke="#F89D1B" stroke-width="2" stroke-linecap="round" stroke-linejoin="round"/>
<path d="M40.1378 29.2544L39.2345 30.3617C39.0888 30.5219 38.9868 30.8425 39.0014 31.061L39.0888 32.4888C39.1471 33.363 38.5206 33.8146 37.7047 33.4941L36.3789 32.9696C36.1749 32.8968 35.8253 32.8968 35.6213 32.9696L34.2955 33.4941C33.4796 33.8146 32.8531 33.363 32.9114 32.4888L32.9988 31.061C33.0134 30.8425 32.9114 30.5219 32.7657 30.3617L31.8624 29.2544C31.2942 28.5842 31.5419 27.8412 32.3869 27.6226L33.771 27.273C33.9895 27.2147 34.2518 27.0107 34.3683 26.8213L35.1405 25.6266C35.6213 24.8836 36.3789 24.8836 36.8597 25.6266L37.6319 26.8213C37.7484 27.0107 38.0107 27.2147 38.2292 27.273L39.6133 27.6226C40.4584 27.8412 40.706 28.5842 40.1378 29.2544Z" fill="#F89D1B"/>
</svg>
